<?xml version="1.0" encoding="utf-8"?>
<!-- Generator: Adobe Illustrator 23.0.5, SVG Export Plug-In . SVG Version: 6.00 Build 0)  -->
<svg version="1.1" id="Layer_1" xmlns="http://www.w3.org/2000/svg" xmlns:xlink="http://www.w3.org/1999/xlink" x="0px" y="0px"
	 viewBox="0 0 1000 665.1" style="enable-background:new 0 0 1000 665.1;" xml:space="preserve">
<style type="text/css">
	.st0{fill:#FF3400;}
	.st1{fill:#CDC3D8;}
	.st2{fill:#1E0F00;}
	.st3{fill:#C60000;}
	.st4{fill:#F5F120;}
	.st5{fill:#FADE0E;}
	.st6{fill:#0D9ED6;}
	.st7{fill:#FFFFFF;}
</style>
<g>
	<g>
		<g>
			<g>
				<g>
					<polygon class="st0" points="725.1,378.6 902.7,331.3 746.5,272.9 802.3,90 634,187.8 657.8,92.7 558.3,178.2 483.4,15.3 
						436.3,180.7 308.5,123.1 374.6,203.3 142.5,163.1 296.5,316.5 143.2,360 329.4,393.2 149.9,539.6 352.2,484 405,636.2 
						479.6,513.2 558.5,656.5 579.2,476.5 719.5,579.7 655.2,454.2 863.6,542 					"/>
				</g>
				<g>
					<g>
						<g>
							<polygon class="st1" points="439.1,186.8 484.4,27.8 556.8,185.3 650.3,104.9 627.3,196.7 794.9,99.3 741.2,275.5 
								888.5,330.6 717.4,376.2 848.6,531 645.9,445.5 707.2,565.3 575.8,468.6 555.8,642.5 479.8,504.5 406.1,626.1 355,478.7 
								168.5,530 339.4,390.6 162.5,359 304.8,318.7 155.3,169.7 385.4,209.6 323.7,134.7 							"/>
						</g>
						<g>
							<g>
								<path class="st0" d="M558.5,656.5l-79-143.3l-74.6,123L352.3,484l-202.4,55.7l179.5-146.4L143.2,360l153.2-43.5L142.5,163.1
									l232.1,40.2L308.5,123l127.8,57.7l47.1-165.5l74.9,163l99.5-85.5L634,187.7L802.2,90l-55.8,182.9l156.2,58.4l-177.6,47.3
									L863.6,542l-208.4-87.9l64.3,125.6L579.2,476.5L558.5,656.5z M480,495.9L553,628.5l19.3-167.8L695,551l-58.4-114l196.9,83
									L709.6,373.8l164.6-43.8l-138.4-51.7l51.7-169.6l-166.9,97l22.1-88.5l-87.5,75.3L485.3,40.2l-43.4,152.5l-103.1-46.5
									l57.3,69.6l-228.1-39.5l145,144.5l-131.3,37.3L349.5,388L187.2,520.4l170.6-46.9l49.4,142.5L480,495.9z"/>
							</g>
						</g>
					</g>
				</g>
				<g>
					<g>
						<g>
							<g>
								<polygon class="st2" points="439.1,186.8 484.4,27.8 556.8,185.3 650.3,104.9 627.3,196.7 794.9,99.3 741.2,275.5 
									888.5,330.6 717.4,376.2 848.6,531 645.9,445.5 707.2,565.3 575.8,468.6 555.8,642.5 479.8,504.5 406.1,626.1 355,478.7 
									168.5,530 339.4,390.6 162.5,359 304.8,318.7 155.3,169.7 385.4,209.6 323.7,134.7 								"/>
								<path class="st2" d="M558,653.5l-78.3-142.1L405.2,634l-52.4-151.2l-199,54.7l177.7-144.9l-184.2-32.8L298.2,317l-153-152.5
									l231.6,40.2l-65.2-79.1L436.9,182l46.7-164.1L558,179.7l98.2-84.5l-23.6,94.4L800.7,92l-55.3,181.5l154.3,57.7l-176.2,46.9
									l137,161.6l-207.2-87.3l63.6,124.3L578.5,474.9L558,653.5z M479.9,497.7l73.7,133.7l19.4-169.1L697.6,554l-59-115.2
									l198.1,83.5l-125.5-148l166-44.2L737,277.6l52.1-171l-167,97.1l22.3-89.2l-88.8,76.3L485.1,37.6l-43.8,153.9l-105.7-47.7
									l58.2,70.7l-228.5-39.6l145.9,145.4l-133.6,37.9l169.6,30.2L183.3,522.4l174-47.8L406.9,618L479.9,497.7z"/>
							</g>
						</g>
						<g>
							<g>
								<g>
									<path class="st2" d="M558.5,656.5l-79-143.3l-74.6,123L352.3,484l-202.4,55.7l179.5-146.4L143.2,360l153.2-43.5
										L142.5,163.1l232.1,40.2L308.5,123l127.8,57.7l47.1-165.5l74.9,163l99.5-85.5L634,187.7L802.2,90l-55.8,182.9l156.2,58.4
										l-177.6,47.3L863.6,542l-208.4-87.9l64.3,125.6L579.2,476.5L558.5,656.5z M480,495.9L553,628.5l19.3-167.8L695,551
										l-58.4-114l196.9,83L709.6,373.8l164.6-43.8l-138.4-51.7l51.7-169.6l-166.9,97l22.1-88.5l-87.5,75.3L485.3,40.2
										l-43.4,152.5l-103.1-46.5l57.3,69.6l-228.1-39.5l145,144.5l-131.3,37.3L349.5,388L187.2,520.4l170.6-46.9l49.4,142.5
										L480,495.9z"/>
									<path class="st2" d="M560.7,667.5L479.4,520l-75.3,124.1l-54.1-156.1l-214.9,59.1l186.3-152L128,360.8l161.9-46
										L132.4,157.9l233.7,40.5l-69.6-84.5L434.1,176L482.6,5.5l76.9,167.2l104.2-89.6l-24.4,97.7l168.8-98.1l-57.4,188.1
										l163.2,61l-182.7,48.7l144.3,170.2l-213-89.8l66.6,130.1L581.9,482.8L560.7,667.5z M479.7,506.4l76.6,139.1l20.1-175.2
										l133.3,98.1l-61.9-121l203.9,85.9L719,376.7l172.5-45.9L742.3,275l54.2-177.6l-167.7,97.4l23.1-92.5l-94.8,81.5L484.2,25.1
										l-45.6,160.4l-118.1-53.3l62.7,76.1l-230.5-40L303,318.2l-144.6,41l178.9,31.9L164.6,532l189.9-52.2l51.4,148.4
										L479.7,506.4z M555.2,639.5l-75.4-136.8l-73.5,121.2l-50.7-146.3l-183.1,50.3L341.6,390l-174.9-31.2l139.9-39.7L158,171.1
										L387.7,211l-60.8-73.8L439.7,188l44.9-157.6l71.9,156.4l92.3-79.3l-22.8,91.1l167.4-97.3L740,276.1l145.4,54.3l-169.7,45.2
										l129.7,153l-201.4-84.9l60.7,118.6l-129.6-95.4L555.2,639.5z M480.1,489.1l70.8,128.4l18.7-163l115.7,85.2l-56-109.5
										l192.4,81.1L703.5,371.8L863,329.3l-131.4-49.1l50.1-164.3l-166.3,96.7l21.5-86L554,197.9L486.1,50.1l-42,147.5l-93.3-42.1
										l53.9,65.4l-226.5-39.3l141.4,141L197,357.3l160.4,28.6L202,512.7l158-43.5l48,138.6L480.1,489.1z"/>
								</g>
							</g>
						</g>
					</g>
				</g>
				<g>
					<polygon class="st3" points="480,495.9 553,628.5 572.3,460.7 695,550.9 636.6,436.9 833.5,519.9 709.6,373.7 874.2,329.9 
						735.8,278.2 787.5,108.6 620.6,205.6 642.8,117.1 555.2,192.3 485.3,40.2 441.9,192.8 338.9,146.3 396.2,215.9 168.1,176.4 
						313.1,320.8 181.8,358.1 349.5,388 187.2,520.3 357.8,473.4 407.1,615.9 					"/>
				</g>
				<g>
					<g>
						<polygon class="st4" points="199.9,193.2 320.4,319.5 226.4,356.8 369.3,381.7 231.1,499.5 358.9,458.4 408.6,596.6 
							482.6,479 543.8,594.9 556.5,425.9 655.6,507.5 625.5,419.3 782.6,481 685.3,371.9 834.1,326.2 725.1,283 760.5,148.2 
							611.2,220.8 626.2,144.4 553.1,214.9 486.4,72.6 452.7,215.6 374.8,171 407.9,216.8 						"/>
					</g>
				</g>
				<g>
					<g>
						<polygon id="SVGID_1_" class="st5" points="420.9,396.7 358.1,411.6 434.6,353.3 359.1,337 410.3,324.3 339.1,247.7 
							466.2,274.6 444.1,245.5 474.7,260.8 498.3,187.5 530.4,264.9 568.5,234.3 556,277.9 653.4,225.6 625.1,308.2 684,332.8 
							602.7,351.4 655.4,418.7 555.9,372.2 581.1,426.3 531.6,386.9 519,470.5 485.7,404.1 443.1,469.4 						"/>
					</g>
				</g>
			</g>
		</g>
	</g>
	<g>
		<path class="st6" d="M411.3,375.4c-1,0.2-1.9,0.4-2.9,0.4c-4.5,0-8.8-2.7-10.6-7.1c-16.8-41.5-35-83.1-53.9-123.9
			c-16.6,5-33.9,11.1-55.8,19.5c39.1,53.7,75.2,109.9,107.4,167.5c4.2-1.4,8.5-2.7,12.6-4c7-2.1,14.3-4.4,21-7
			c0.5-0.2,0.9-0.3,1.4-0.4c2.3-0.6,4.6-1.1,6.9-1.7c4.3-1,8.5-1.6,12.5-2.3c0.8-0.1,1.6-0.2,2.4-0.4c2.1-12.4,1.7-46,1.6-63.1
			c-0.1-11.6-0.2-21.6,0.1-27.4c1.9-35.7,5-71.9,9.1-107.6c-3.4,0.5-6.7,1-10.1,1.5c-16.5,2.5-33.4,6.5-41.8,9.1
			c0.9,21.2,2,42.5,3.5,63.5c0.4,7,0.8,14.2,1.2,21.1c0.8,16.5,1.7,33.5,3.8,49.8C420.5,368.6,416.8,374,411.3,375.4z"/>
		<path class="st7" d="M433.4,431.5c2.3-0.6,4.5-1.1,6.8-1.6c6.8-1.6,13.6-2.2,20.5-3.6c7.6-6,3.9-80.5,4.8-100.1
			c2.1-38.8,5.5-77.7,10.2-116.6c-0.4-1.4-1.5-3.8-3.7-4.3c-6.9,0.9-13.8,1.9-20.6,3c-23.2,3.5-51.6,10.6-51.7,13.3
			c0.9,23.8,2.2,47.6,3.8,71.3c1.5,23.6,2,47.9,5,71.5c-17.7-43.6-36.6-86.9-56.6-129.7c-2-1.7-3.7-2.3-5.3-2.3
			c-0.6,0-1.2,0.1-1.8,0.3c-23.3,6.9-45.9,15.2-69.3,24.4c-2.2,0.9-3.8,2.6-2.7,5.5c43.4,58.9,82.7,120.1,117.6,183.2
			C404.2,440.4,419.2,437,433.4,431.5z M419.7,363c-2.1-16.3-2.9-33.3-3.8-49.8c-0.3-6.9-0.7-14-1.2-21.1c-1.5-21-2.6-42.4-3.5-63.5
			c8.4-2.6,25.4-6.6,41.8-9.1c3.3-0.5,6.7-1,10.1-1.5c-4.1,35.7-7.2,71.9-9.1,107.6c-0.3,5.8-0.2,15.8-0.1,27.4
			c0.2,17.1,0.5,50.7-1.6,63.1c-0.8,0.1-1.6,0.2-2.4,0.4c-4,0.6-8.2,1.3-12.5,2.3c-2.3,0.5-4.6,1.1-6.9,1.7
			c-0.5,0.1-0.9,0.3-1.4,0.4c-6.8,2.6-14,4.8-21,7c-4.2,1.3-8.4,2.6-12.6,4c-32.3-57.5-68.4-113.8-107.4-167.5
			c21.9-8.4,39.1-14.5,55.8-19.5c19,40.7,37.1,82.4,53.9,123.9c1.8,4.4,6,7.1,10.6,7.1c1,0,1.9-0.1,2.9-0.4
			C416.8,374,420.5,368.6,419.7,363z"/>
		<path class="st2" d="M722.8,241.6c-0.4-0.8-0.9-1.6-1.4-2.3c-11.8-14.5-28-23.4-43-28.8c-0.6-0.2-1.2-0.4-1.8-0.7
			c-0.6-0.2-1.2-0.5-1.8-0.7c-0.6-0.2-1.2-0.5-1.8-0.7c-0.6-0.2-1.2-0.5-1.8-0.7c-0.6-0.2-1.2-0.5-1.8-0.7c-0.6-0.2-1.2-0.4-1.8-0.7
			c-0.6-0.2-1.2-0.5-1.8-0.7c-0.6-0.2-1.2-0.5-1.8-0.7c-0.6-0.2-1.2-0.5-1.8-0.7c-0.6-0.2-1.2-0.5-1.8-0.7c-0.6-0.2-1.2-0.4-1.8-0.7
			c-0.6-0.2-1.2-0.5-1.8-0.7c-0.6-0.2-1.2-0.5-1.8-0.7c-0.6-0.2-1.2-0.5-1.8-0.7c-0.6-0.2-1.2-0.5-1.8-0.7c-0.6-0.2-1.2-0.4-1.8-0.7
			c-0.6-0.2-1.2-0.5-1.8-0.7c-7.1-2.7-14-4.7-20.1-6c-33.3-7.9-66.5-3-88.9,13c-3.9,2.8-7.4,5.9-10.7,9.3c-0.1-0.3-0.1-0.6-0.2-0.9
			c-2-6.1-6.2-10.5-11.7-11.9c-0.6-0.1-1.1-0.2-1.7-0.3c-0.2,0-0.4-0.1-0.6-0.2c-0.6-0.1-1.2-0.2-1.7-0.3c-0.2,0-0.4-0.1-0.5-0.2
			c-0.6-0.1-1.1-0.2-1.7-0.3c-0.2,0-0.4-0.1-0.6-0.2c-0.6-0.1-1.2-0.2-1.7-0.3c-0.2,0-0.4-0.1-0.6-0.2c-0.6-0.1-1.1-0.2-1.7-0.3
			c-0.2,0-0.4-0.1-0.6-0.2c-0.6-0.1-1.1-0.2-1.7-0.3c-0.2,0-0.4-0.1-0.6-0.2c-0.6-0.1-1.2-0.2-1.7-0.3c-0.2,0-0.4-0.1-0.5-0.2
			c-0.6-0.1-1.1-0.2-1.7-0.3c-0.2,0-0.4-0.1-0.6-0.2c-0.6-0.1-1.2-0.2-1.7-0.3c-0.2,0-0.4-0.1-0.6-0.2c-0.6-0.1-1.1-0.2-1.7-0.3
			c-0.2,0-0.4-0.1-0.6-0.2c-0.6-0.1-1.1-0.2-1.7-0.3c-0.2,0-0.4-0.1-0.6-0.2c-0.6-0.1-1.2-0.2-1.7-0.3c-0.2,0-0.4-0.1-0.6-0.2
			c-0.6-0.1-1.1-0.2-1.7-0.3c-0.2,0-0.4-0.1-0.6-0.2c-0.6-0.1-1.2-0.2-1.7-0.3c-0.2,0-0.4-0.1-0.6-0.2c-0.6-0.1-1.1-0.2-1.7-0.3
			c-0.2,0-0.4-0.1-0.6-0.2c-0.6-0.1-1.1-0.2-1.7-0.3c-0.2,0-0.4-0.1-0.6-0.2c-0.6-0.1-1.2-0.2-1.7-0.3c-0.2,0-0.4-0.1-0.5-0.2
			c-0.6-0.1-1.1-0.2-1.7-0.3c-0.2,0-0.4-0.1-0.6-0.2c-1.4-0.4-2.9-0.5-4.4-0.3c-7,0.9-14,2-20.8,3.1c-11.4,1.7-24.8,4.4-35.6,7.2
			c-15.6,4-25.2,6.9-25.8,16.7c0,0.4,0,0.8,0,1.1c0.1,2.3,0.2,4.7,0.3,7c-0.3-0.1-0.7-0.1-1-0.2c-0.8-0.2-1.6-0.4-2.3-0.5
			c-0.8-0.2-1.5-0.4-2.3-0.4c-0.8-0.2-1.5-0.4-2.3-0.5c-0.8-0.2-1.5-0.4-2.3-0.5c-0.8-0.2-1.6-0.4-2.3-0.5c-0.8-0.2-1.5-0.4-2.3-0.5
			c-0.8-0.2-1.5-0.4-2.3-0.4c-0.8-0.2-1.6-0.4-2.3-0.5c-0.8-0.2-1.5-0.4-2.3-0.5c-0.8-0.2-1.5-0.4-2.3-0.5c-0.8-0.2-1.6-0.4-2.3-0.5
			c-0.8-0.2-1.5-0.4-2.3-0.4c-0.8-0.2-1.6-0.4-2.3-0.5c-0.8-0.2-1.5-0.4-2.3-0.5c-0.8-0.2-1.5-0.4-2.3-0.5c-0.8-0.2-1.6-0.4-2.3-0.5
			c-3.7-1-7-0.6-9.6,0.1c-26.1,7.7-51.3,17.3-70.2,24.7l0,0c-4.2,1.6-7.4,4.7-9.1,8.4c-1.6,3.7-1.6,7.9,0,11.9
			c0.4,0.9,0.8,1.7,1.4,2.5c42.8,58.1,82.1,119.3,116.8,182c1.9,3.4,5.2,5.5,8.9,5.8c0.7,0.2,1.5,0.4,2.3,0.5
			c0.7,0.2,1.5,0.4,2.3,0.4c0.7,0.2,1.5,0.4,2.3,0.5c0.7,0.2,1.5,0.4,2.3,0.5c0.7,0.2,1.5,0.4,2.3,0.5c0.7,0.2,1.5,0.4,2.3,0.5
			c0.7,0.2,1.5,0.4,2.3,0.4c0.7,0.2,1.5,0.4,2.3,0.5c0.7,0.2,1.5,0.4,2.3,0.5c0.7,0.2,1.5,0.4,2.3,0.5c0.7,0.2,1.5,0.4,2.3,0.5
			c0.7,0.2,1.5,0.4,2.3,0.4c0.7,0.2,1.5,0.4,2.3,0.5c0.7,0.2,1.5,0.4,2.3,0.5c0.7,0.2,1.5,0.4,2.3,0.5c0.7,0.2,1.5,0.4,2.3,0.5
			c0.7,0.2,1.5,0.4,2.3,0.4c1.1,0.3,2.2,0.5,3.4,0.5c1.4,0,2.8-0.2,4.1-0.8c6.5-2.5,13.2-4.6,20.4-6.8c7.2-2.2,14.6-4.5,21.9-7.3
			c2-0.5,4-1,6-1.4c3.4-0.8,7-1.4,10.7-1.9c3-0.5,6.2-0.9,9.4-1.6c1.8-0.3,3.4-1.1,4.8-2.2c4.4-3.5,6.9-9.3,8.1-23.6
			c9.7,9.8,21.9,16.2,34.5,20.8c0.6,0.2,1.2,0.5,1.8,0.7c0.6,0.2,1.2,0.5,1.8,0.7c0.6,0.2,1.2,0.5,1.8,0.7c0.6,0.2,1.2,0.4,1.7,0.6
			c0.6,0.2,1.3,0.5,1.9,0.7c0.6,0.2,1.2,0.5,1.8,0.7c0.6,0.2,1.2,0.5,1.8,0.7c0.6,0.2,1.2,0.5,1.8,0.7c0.6,0.2,1.2,0.4,1.7,0.6
			c0.6,0.2,1.3,0.5,1.9,0.7c0.6,0.2,1.2,0.5,1.8,0.7c0.6,0.2,1.2,0.5,1.8,0.7c0.6,0.2,1.2,0.5,1.8,0.7c0.6,0.2,1.2,0.4,1.7,0.6
			c0.6,0.2,1.3,0.5,1.9,0.7c0.6,0.2,1.2,0.5,1.8,0.7c0.6,0.2,1.2,0.5,1.8,0.7c4.7,1.8,9.5,3.3,14.3,4.7c0.5,0.2,1.1,0.3,1.7,0.3
			c6.8,0.9,15.4,2,25,2c28.3,0,64.7-9.9,84.5-65.3c14.5-41.1-1.6-66.5-24.2-84.5c9.3,2.5,18.7,5.1,28.8,7.9c3,0.8,6.2,0.4,8.9-1.2
			c2-1.2,3.9-2.3,5.9-3.5c2.6-1.5,4.5-4,5.2-6.9C739.4,279.8,735.6,268.1,722.8,241.6z M506.7,352.3c0.2-2,1-2.8,2.6-3
			c0.6,0.4,1.3,0.4,2.2,0.5c18.4,2.1,37.6,3.9,55.9,7.5c8.5,1.7-0.9,19.5,14.6,22.8c0.9,0.2,1.8,0.3,2.8,0.3
			c5.7,0,11.9-3.7,13.9-11.7c4.1-15.9-30.5-28.6-36.3-31.4c-33.6-18.8-48.4-36.9-44.7-70.6c4.6-48.2,40.9-66.3,78.4-66.3
			c9.7,0,19.4,1.2,28.7,3.4c19.5,4.4,41.4,13.6,55,30.3c12,25,14.9,34,9.1,56.4c-2,1.2-4,2.4-6,3.6c-18.8-5.2-36.6-10.1-56.1-15
			c-16.6-4.1-2.5-15.2-18-18.7c-0.5-0.1-2.3-0.3-4.4-0.3c-4.8,0-11.9,1-12.9,6.2c-1.8,9.2,13.8,14.9,18.8,18.5
			c34.7,19.4,72.5,41.3,54.2,93.1c-17.2,48-46.3,57.6-73.4,57.6c-8.3,0-16.4-0.9-23.9-1.9C531.3,423.4,504.6,406.5,506.7,352.3z
			 M519,317.5c7.5,9.7,17.8,17.8,30.1,25.3c-8.8-1.2-17.7-2.2-26.4-3.2c-1.6-0.2-3.3-0.4-4.9-0.6c0-1.6,0.1-3,0.1-4.2
			C518.2,329.2,518.6,323.4,519,317.5z M390.4,445.8c-34.9-63.1-74.2-124.3-117.6-183.2c-1.2-2.9,0.5-4.6,2.7-5.5
			c23.4-9.2,46-17.5,69.3-24.4c0.6-0.2,1.2-0.3,1.8-0.3c1.5,0,3.3,0.6,5.3,2.3c20,42.8,38.9,86,56.6,129.7c-3-23.6-3.5-47.9-5-71.5
			c-1.6-23.7-2.9-47.5-3.8-71.3c0.2-2.7,28.5-9.8,51.7-13.3c6.9-1.1,13.7-2.1,20.6-3c2.2,0.6,3.3,3,3.7,4.3
			c-4.7,38.9-8.1,77.8-10.2,116.6c-1,19.6,2.8,94-4.8,100.1c-6.8,1.4-13.7,2-20.5,3.6c-2.3,0.5-4.5,1.1-6.8,1.6
			C419.2,437,404.2,440.4,390.4,445.8z"/>
		<path class="st6" d="M609.6,371.6c-3,12.1-13,20.3-25,20.3c-1.8,0-3.6-0.2-5.3-0.6c-16.4-3.6-18.4-17.6-19-23.6
			c-13.1-2.3-26.9-3.9-40.2-5.4c-0.7-0.1-1.5-0.2-2.2-0.2c1.2,37.9,20,51.3,51.4,60.4c6.9,0.9,14.2,1.7,21.6,1.7
			c20.8,0,46.8-5.7,62.7-50.1c14.2-40.3-10.2-57.6-49-79.4c-0.4-0.2-0.8-0.5-1.1-0.7c-0.6-0.4-2.2-1.3-3.5-2
			c-8-4.4-22.8-12.6-19.8-27.9c0.7-3.6,4.6-15.4,24.1-15.4c1,0,4.5,0,7.1,0.6c15.1,3.5,16.7,14.3,17.2,18.5c0.2,0.1,0.5,0.2,0.9,0.2
			c17,4.3,32.5,8.5,49.9,13.3c2.7-13.8,0.3-21.1-9.2-40.9c-13.5-15.7-35.7-22.6-47.9-25.4c0,0-0.1,0-0.1,0
			c-8.7-2.1-17.4-3.1-26.1-3.1c-18.6,0-62.3,5.5-67.1,56c0,0,0,0.1,0,0.2c-2.9,26.7,6.5,41.1,38.6,59.2c0.6,0.3,1.4,0.6,2.4,1.1
			C583.6,334.3,615.6,348.2,609.6,371.6z"/>
		<path class="st7" d="M567.1,433.7c7.5,1,15.6,1.9,23.9,1.9c27.1,0,56.2-9.6,73.4-57.6c18.3-51.9-19.5-73.7-54.2-93.1
			c-5-3.6-20.6-9.3-18.8-18.5c1-5.2,8.1-6.2,12.9-6.2c2.2,0,3.9,0.2,4.4,0.3c15.5,3.6,1.4,14.7,18,18.7c19.5,4.9,37.3,9.8,56.1,15
			c2-1.2,4-2.4,6-3.6c5.8-22.4,3-31.4-9.1-56.4c-13.6-16.7-35.5-25.9-55-30.3c-9.3-2.2-19-3.4-28.7-3.4c-37.5,0-73.8,18.1-78.4,66.3
			c-3.7,33.7,11.1,51.7,44.7,70.6c5.9,2.9,40.4,15.6,36.3,31.4c-2,8-8.2,11.7-13.9,11.7c-1,0-1.9-0.1-2.8-0.3
			c-15.5-3.4-6.1-21.1-14.6-22.8c-18.3-3.6-37.5-5.4-55.9-7.5c-0.9-0.1-1.6-0.2-2.2-0.5c-1.6,0.1-2.3,0.9-2.6,3
			C504.6,406.5,531.3,423.4,567.1,433.7z M569.9,328.3c-1-0.4-1.8-0.8-2.4-1.1c-32.2-18.1-41.6-32.5-38.6-59.2c0,0,0-0.1,0-0.2
			c4.8-50.5,48.5-56,67.1-56c8.6,0,17.4,1,26.1,3.1c0,0,0.1,0,0.1,0c12.2,2.7,34.4,9.7,47.9,25.4c9.5,19.8,11.9,27.2,9.2,40.9
			c-17.4-4.8-32.9-9-49.9-13.3c-0.3-0.1-0.6-0.2-0.9-0.2c-0.5-4.2-2-15-17.2-18.5c-2.5-0.6-6-0.6-7.1-0.6
			c-19.5,0-23.4,11.8-24.1,15.4c-3,15.3,11.8,23.5,19.8,27.9c1.3,0.7,2.9,1.6,3.5,2c0.4,0.3,0.7,0.5,1.1,0.7
			c38.9,21.8,63.3,39.1,49,79.4c-15.9,44.4-41.8,50.1-62.7,50.1c-7.4,0-14.7-0.8-21.6-1.7c-31.4-9.2-50.2-22.5-51.4-60.4
			c0.7,0.1,1.5,0.2,2.2,0.2c13.4,1.5,27.1,3,40.2,5.4c0.6,6,2.6,20.1,19,23.6c1.7,0.4,3.5,0.6,5.3,0.6c11.9,0,22-8.2,25-20.3
			C615.6,348.2,583.6,334.3,569.9,328.3z"/>
	</g>
</g>
</svg>
